<svg width="64" height="64" version="1.1" viewBox="0 -1 17 16" xmlns="http://www.w3.org/2000/svg"><ellipse cx="8.6" cy="7.5" rx="7.7" ry="7.7" fill="#fff" opacity=".8" stroke="#000" stroke-width=".26"/><path d="m10.7 1.3-0.29 0.29c-0.047 0.047-0.073 0.11-0.072 0.18v1.1c-1.1-0.9-2.7-0.83-3.7 0.14l-0.4-0.4v-0.97c0.35-0.25 0.2-0.82-0.23-0.83-0.43-0.014-0.63 0.53-0.27 0.82v1.1c0 0.067 0.027 0.13 0.074 0.18l0.49 0.49c-0.43 0.59-0.63 1.3-0.54 2.1v0.0072l-0.83-0.83c-0.047-0.047-0.11-0.073-0.18-0.072h-2c-0.27-0.36-0.83-0.19-0.83 0.25 0.0012 0.44 0.56 0.62 0.82 0.25h1.9l1.3 1.3c0.43 0.38 0.74 1.2 0.59 1.6h-2.5c-0.066 0 -0.13 0.027-0.18 0.074l-1.4 1.4c-0.39-0.089-0.72 0.34-0.48 0.69s0.86 0.2 0.82-0.33l1.3-1.3h2.6c0.26 0.15 0.51 0.4 0.67 0.65v1.9l-1.5 1.5c-0.047 0.047-0.073 0.11-0.074 0.18v0.28c-0.45 0.3-0.15 0.83 0.23 0.83 0.38 0 0.63-0.47 0.27-0.81v-0.21l1.5-1.5c0.047-0.046 0.074-0.11 0.074-0.18v-1.7c0.24-0.32 1.1-0.4 1.4-0.03v1.2c 0 0.066 0.027 0.13 0.074 0.18l1.5 1.5v0.69c-0.36 0.24-0.23 0.81 0.27 0.82 0.49 0.0021 0.54-0.64 0.23-0.82v-0.79c 0 -0.066-0.027-0.13-0.074-0.18l-1.5-1.5v-1.4c0.15-0.2 0.3-0.25 0.53-0.24h3.2l0.91 0.91c-0.099 0.44 0.48 0.72 0.77 0.4 0.28-0.32 0.072-0.79-0.42-0.76l-0.98-0.98c-0.047-0.047-0.11-0.072-0.18-0.072h-3c-0.21-0.32 0.24-1.5 0.67-1.9l2.2 0.0059c0.067 0 0.13-0.026 0.18-0.072l1.1-1.1c0.39 0.096 0.73-0.4 0.44-0.73s-0.87-0.1-0.78 0.36l-1.1 1.1h-2c0.27-0.95 0.0067-1.9-0.43-2.5v-1.5l0.21-0.21c0.38 0.082 0.71-0.33 0.46-0.69s-0.87-0.19-0.8 0.33zm-3.2 4.9c0.84-0.029 0.96 1.5 0.2 1.5-0.76-0.014-1-1.4-0.2-1.5zm2.1 0c0.75 0.084 0.61 1.5-0.2 1.5-0.81 0.0033-0.55-1.5 0.2-1.5z" fill-opacity=".8"/><rect x="0" y="0" width="17" height="16" ry="1.8" opacity="0" stroke-width=".26"/><ellipse cx="9.4" cy="7.4" rx=".34" ry=".33" opacity=".8"/><ellipse cx="7.7" cy="7.4" rx=".34" ry=".33" opacity=".8"/></svg>